<svg width="20" height="20" viewBox="0 0 20 20" fill="none" xmlns="http://www.w3.org/2000/svg">
<path d="M14.9492 10.4961C14.9414 9.0625 15.5898 7.98047 16.9023 7.18359C16.168 6.13281 15.0586 5.55469 13.5938 5.44141C12.207 5.33203 10.6914 6.25 10.1367 6.25C9.55078 6.25 8.20703 5.48047 7.15234 5.48047C4.97266 5.51563 2.65625 7.21875 2.65625 10.6836C2.65625 11.707 2.84375 12.7643 3.21875 13.8555C3.71875 15.2891 5.52344 18.8047 7.40625 18.7461C8.39062 18.7227 9.08594 18.0469 10.3672 18.0469C11.6094 18.0469 12.2539 18.7461 13.3516 18.7461C15.25 18.7187 16.8828 15.5234 17.3594 14.0859C14.8125 12.8867 14.9492 10.5703 14.9492 10.4961ZM12.7383 4.08203C13.8047 2.81641 13.707 1.66406 13.6758 1.25C12.7344 1.30469 11.6445 1.89063 11.0234 2.61328C10.3398 3.38672 9.9375 4.34375 10.0234 5.42188C11.043 5.5 11.9727 4.97656 12.7383 4.08203Z" fill="black"/>
</svg>
