<svg width="15" height="15" viewBox="0 0 15 15" fill="none" xmlns="http://www.w3.org/2000/svg">
<path d="M0.0315785 2.94305C0.0561917 2.73059 0.150542 2.53101 0.312871 2.34372L2.56321 0.0962585C2.73843 -0.0535725 2.8697 -0.0284056 2.95702 0.171174L4.77605 3.57983C4.87626 3.77941 4.84461 3.97314 4.68228 4.16043L3.85716 4.9845C3.70714 5.13433 3.61982 5.32805 3.59462 5.56509C3.59462 5.93967 3.78859 6.42018 4.17596 7.00722C4.56332 7.59425 4.94482 8.09349 5.31988 8.50611L5.90122 9.10485C6.07644 9.27985 6.30089 9.49523 6.57691 9.751C6.85175 10.0068 7.30475 10.3439 7.9359 10.7624C8.56705 11.1808 9.06459 11.3898 9.42675 11.3898C9.66409 11.3898 9.86451 11.3084 10.0268 11.1463L11.0026 10.1724C11.1778 9.9974 11.3647 9.97223 11.5646 10.0975L14.8469 12.0266C14.9342 12.0769 14.9846 12.1419 14.9969 12.2232C15.0092 12.3046 14.9846 12.3766 14.9219 12.4386L12.6716 14.6861C12.484 14.8482 12.2836 14.9424 12.0721 14.9664C11.4591 15.0542 10.7682 14.9699 9.9993 14.7136C9.23043 14.4572 8.51841 14.1172 7.86206 13.6928C7.20571 13.2685 6.59624 12.8378 6.03366 12.4011C5.47107 11.9639 5.02101 11.5894 4.68345 11.2774L4.19588 10.8086C4.07106 10.6839 3.90521 10.5124 3.69893 10.2936C3.49265 10.0747 3.13224 9.64506 2.61947 9.00184C2.1067 8.35862 1.66308 7.7312 1.28802 7.11959C0.912962 6.50797 0.588303 5.81149 0.312871 5.03132C0.0380249 4.25114 -0.0557393 3.55466 0.0315785 2.94305Z" fill="white"/>
</svg>
