<svg width="17" height="20" viewBox="0 0 17 20" fill="none" xmlns="http://www.w3.org/2000/svg">
<path d="M13.3571 6.25V5C13.3571 2.24297 11.1782 0 8.5 0C5.82174 0 3.64286 2.24297 3.64286 5V6.25H0V16.875C0 18.6009 1.35913 20 3.03571 20H13.9643C15.6409 20 17 18.6009 17 16.875V6.25H13.3571ZM6.07143 5C6.07143 3.62148 7.16087 2.5 8.5 2.5C9.83913 2.5 10.9286 3.62148 10.9286 5V6.25H6.07143V5ZM12.1429 9.6875C11.6399 9.6875 11.2321 9.26777 11.2321 8.75C11.2321 8.23223 11.6399 7.8125 12.1429 7.8125C12.6458 7.8125 13.0536 8.23223 13.0536 8.75C13.0536 9.26777 12.6458 9.6875 12.1429 9.6875ZM4.85714 9.6875C4.35416 9.6875 3.94643 9.26777 3.94643 8.75C3.94643 8.23223 4.35416 7.8125 4.85714 7.8125C5.36012 7.8125 5.76786 8.23223 5.76786 8.75C5.76786 9.26777 5.36012 9.6875 4.85714 9.6875Z" fill="#621AFF"/>
</svg>
