<svg width="35" height="35" viewBox="0 0 35 35" fill="none" xmlns="http://www.w3.org/2000/svg">
<path d="M17.5068 9.63867C13.1592 9.63867 9.65234 13.1455 9.65234 17.4932C9.65234 21.8408 13.1592 25.3477 17.5068 25.3477C21.8545 25.3477 25.3613 21.8408 25.3613 17.4932C25.3613 13.1455 21.8545 9.63867 17.5068 9.63867ZM17.5068 22.5996C14.6973 22.5996 12.4004 20.3096 12.4004 17.4932C12.4004 14.6768 14.6904 12.3867 17.5068 12.3867C20.3232 12.3867 22.6133 14.6768 22.6133 17.4932C22.6133 20.3096 20.3164 22.5996 17.5068 22.5996ZM27.5146 9.31738C27.5146 10.3359 26.6943 11.1494 25.6826 11.1494C24.6641 11.1494 23.8506 10.3291 23.8506 9.31738C23.8506 8.30566 24.6709 7.48535 25.6826 7.48535C26.6943 7.48535 27.5146 8.30566 27.5146 9.31738ZM32.7168 11.1768C32.6006 8.72266 32.04 6.54883 30.2422 4.75781C28.4512 2.9668 26.2773 2.40625 23.8232 2.2832C21.2939 2.13965 13.7129 2.13965 11.1836 2.2832C8.73633 2.39941 6.5625 2.95996 4.76465 4.75098C2.9668 6.54199 2.41309 8.71582 2.29004 11.1699C2.14648 13.6992 2.14648 21.2803 2.29004 23.8096C2.40625 26.2637 2.9668 28.4375 4.76465 30.2285C6.5625 32.0195 8.72949 32.5801 11.1836 32.7031C13.7129 32.8467 21.2939 32.8467 23.8232 32.7031C26.2773 32.5869 28.4512 32.0264 30.2422 30.2285C32.0332 28.4375 32.5938 26.2637 32.7168 23.8096C32.8604 21.2803 32.8604 13.7061 32.7168 11.1768ZM29.4492 26.5234C28.916 27.8633 27.8838 28.8955 26.5371 29.4355C24.5205 30.2354 19.7354 30.0508 17.5068 30.0508C15.2783 30.0508 10.4863 30.2285 8.47656 29.4355C7.13672 28.9023 6.10449 27.8701 5.56445 26.5234C4.76465 24.5068 4.94922 19.7217 4.94922 17.4932C4.94922 15.2646 4.77148 10.4727 5.56445 8.46289C6.09766 7.12305 7.12988 6.09082 8.47656 5.55078C10.4932 4.75098 15.2783 4.93555 17.5068 4.93555C19.7354 4.93555 24.5273 4.75781 26.5371 5.55078C27.877 6.08398 28.9092 7.11621 29.4492 8.46289C30.249 10.4795 30.0645 15.2646 30.0645 17.4932C30.0645 19.7217 30.249 24.5137 29.4492 26.5234Z" fill="white"/>
</svg>
