<svg width="165" height="140" viewBox="0 0 165 140" fill="none" xmlns="http://www.w3.org/2000/svg">
<path d="M77.0001 50C72.4716 28.7145 76.9996 0 76.9996 0H165V139C165 139 144 143.172 126.5 130C113.488 120.206 110.5 119.5 97 101C83.5 82.5 81.9998 73.5 77.0001 50Z" fill="#FFA5A5"/>
<path d="M1.49969 37.5001C-0.900306 32.3001 5.49923 27.6668 8.99969 26.0001C12.5002 24.3333 32.1443 26.8162 37.9995 37.5001C42.4102 45.548 43.2221 53.4537 37.9995 61.0001C32.5877 68.8199 24.0099 72.0417 14.9995 69.0001C6.52559 66.1396 3.49953 59.2174 1.49969 50.5001C0.364508 45.5518 3.89969 42.7001 1.49969 37.5001Z" fill="#FFA5A5"/>
</svg>
